<svg id="Layer_1" data-name="Layer 1" xmlns="http://www.w3.org/2000/svg" viewBox="0 0 305.9 305.68"><title>icons</title><path d="M111.12,29.74c4.3.45,8.59,1,12.9,1.28a3.16,3.16,0,0,0,2.4-1c16.43-22.21,39-31.06,65.9-29.88C211.46,1,228.15,8,241.66,21.72,253,33.3,258.91,47.33,258.37,63.66c-.48,14.51-6.74,26.7-16.78,36.83-3.13,3.16-3.72,5.49-2,9.52,3.49,8.27,6.36,16.8,9.48,25.22.11.31.24.62.36.92a4.91,4.91,0,0,1-1.07,5.77c-1.76,1.64-3.81,1.26-5.79.17q-11-6.12-22.05-12.21c-5-2.77-10-5.59-15.11-8.27a5.3,5.3,0,0,0-3.24-.53,80.3,80.3,0,0,1-27.83.45,3,3,0,0,0-2.39,1c-13.23,18.23-31.55,27.2-53.51,29.76-7.56.89-14.94,0-22.37-1.08a6.87,6.87,0,0,0-4,.75c-12.13,6.6-24.21,13.3-36.29,20-2,1.08-3.89,2.09-6,.39-1.79-1.45-2.18-3.73-1.11-6.63,3.56-9.67,7.11-19.35,10.76-29a2.72,2.72,0,0,0-.89-3.59c-22.3-19.52-25-54-6.05-76.78,13.74-16.48,31.67-24.6,52.81-26.15,1.9-.14,3.83,0,5.74,0ZM61.26,159c1.2-.6,1.93-.93,2.62-1.32,8.8-4.88,17.57-9.82,26.41-14.62a7.88,7.88,0,0,1,4.18-1c5,.45,10,1.64,15.08,1.7,18.32.25,34.55-5.4,47.88-18.28,17.79-17.18,19.83-43.16,4.85-62.52-9.77-12.63-23-19.8-38.51-22.53-20.36-3.59-39.11.39-55.49,13.35C57.48,62.36,50.41,73.4,49,87.28c-1.77,17,5.48,30.38,18,41.3,3.85,3.37,4.08,3.72,2.34,8.48-.22.62-.48,1.24-.7,1.86C66.18,145.45,63.81,152,61.26,159Zm175.32-30.53c-.39-1.24-.58-1.94-.83-2.62q-3.51-9.6-7-19.2c-1.77-4.81-1.57-5.31,2.4-8.68,14.7-12.48,21.16-28,16.67-47.15-3.62-15.37-13.37-26.39-27.13-33.46C196.77,5.08,173,6.41,150,19.9a50.39,50.39,0,0,0-15,13.27c16.55,5.73,30.16,15.17,39,30.42,9,15.57,10.09,31.91,3.12,48.74.85.18,1.31.31,1.79.38a68,68,0,0,0,21.86-.85,11,11,0,0,1,8.06,1.2C217.78,118.23,226.93,123.15,236.58,128.47Z"/><path d="M250.84,232.57c3.19.49,6.43.76,9.56,1.49,23,5.34,37.37,19.59,43.62,42.21,2.22,8.06,1.93,16.34,1.77,24.58-.06,2.79-1.78,4.41-4.56,4.77a18.57,18.57,0,0,1-2.24.05H171c-5.59,0-7-1.49-7.07-7.15,0-8.66-.35-17.36,2.56-25.71,7.2-20.6,21.17-33.81,42.64-38.67,3.44-.78,7-1.11,11.32-1.78-18.37-9.53-27.58-23.83-25.44-44.15A37.18,37.18,0,0,1,208.89,163c17.93-14.71,41.25-12.12,55.8,3a40.32,40.32,0,0,1,5.51,48.9,42,42,0,0,1-19.67,17Zm-77.71,63.48H296.32c1.08-15.47-3-29-13.93-40.05-7.15-7.22-15.89-12.39-26-13.07-13.35-.9-26.79-.4-40.18-.47a23,23,0,0,0-4.22.42A47.91,47.91,0,0,0,173.13,296.05Zm30.25-102.32c.1,16.63,13.09,31.77,31.6,31.67a31.43,31.43,0,1,0-.1-62.85C217.7,162.62,203.24,176.93,203.38,193.73Z"/><path d="M42.78,244.9c-11.56-7.77-18.07-18.08-17.7-32.06a31.74,31.74,0,0,1,10.6-23c13.92-13,34.31-12.46,47.5,1.27a32.34,32.34,0,0,1,8.95,28.7c-1.74,11-8.23,18.8-18,24.74a13.58,13.58,0,0,0,2.16.52c18.17.4,35.27,14.36,39.22,32.76a65.62,65.62,0,0,1,1.2,10.38c.2,3.82.06,7.66,0,11.5,0,4.38-1.5,5.88-5.83,5.89H6.16c-4.61,0-6.25-1.53-6.16-6.11.14-6.48-.31-13.1.83-19.42,3.23-17.91,14.45-28.86,31.72-33.82a55,55,0,0,1,7.63-1.12C41,245.05,41.91,245,42.78,244.9ZM9.56,296.09h97.78c.21-7.25.49-14.33-2.41-21-5.09-11.79-13.86-19.44-26.74-20.28-13.1-.86-26.3-.5-39.44-.09-8.33.26-15.2,4.35-20.85,10.47C9.77,274,8.5,284.61,9.56,296.09Zm49.12-57.38c13.56,0,24.73-10.92,24.72-24.19,0-13.48-11.25-24.82-24.56-24.78-13.12,0-24.55,11.2-24.57,24C34.26,227.67,45,238.7,58.68,238.71Z"/><path d="M58.9,92.25a16.07,16.07,0,0,1,16.38-16,16.21,16.21,0,1,1-16.38,16Zm9.27,0a6.89,6.89,0,1,0,7.28-6.67A7,7,0,0,0,68.17,92.29Z"/><path d="M126.9,92.38a16.37,16.37,0,0,1-16.13,16.31,16.21,16.21,0,1,1,0-32.41A16.34,16.34,0,0,1,126.9,92.38Zm-16.21-6.76a6.62,6.62,0,0,0-6.84,6.7,7,7,0,0,0,6.87,7.06,7.06,7.06,0,0,0,6.91-6.8A6.92,6.92,0,0,0,110.69,85.62Z"/><path d="M146.45,76.28c8.79,0,16.32,7.6,16.18,16.3a16.21,16.21,0,1,1-16.18-16.3Zm0,9.34a6.71,6.71,0,0,0-7,6.62,6.95,6.95,0,1,0,7-6.62Z"/><path d="M200.68,32.21c9.06,0,18.13,0,27.2,0,4.46,0,6.85,3.46,4.92,7.05-1.17,2.19-3.32,2.28-5.42,2.28q-17.22,0-34.44,0c-6.65,0-13.31,0-20,0-4.41,0-6.94-3.71-5-7.13,1.16-2,3.18-2.19,5.22-2.19h27.46Z"/><path d="M207.4,62.32c-7,0-14,0-21,0-3.87,0-5.92-2.55-5-5.92.66-2.42,2.47-3.22,4.73-3.23q21.22,0,42.44,0c3.05,0,4.82,1.81,4.83,4.55s-1.68,4.53-4.81,4.56c-7.07.09-14.15,0-21.22,0Z"/><path d="M211.63,83.2c-5.4,0-10.81.08-16.22,0-4.1-.08-6.2-3.69-4.24-7.09,1.18-2,3.23-2.13,5.25-2.13q13.37,0,26.71,0a53.84,53.84,0,0,1,6.23.15c3.52.43,5.38,4.26,3.23,7a6.61,6.61,0,0,1-4.48,2C222.62,83.35,217.13,83.2,211.63,83.2Z"/></svg>