<svg id="Layer_1" data-name="Layer 1" xmlns="http://www.w3.org/2000/svg" viewBox="0 0 232.93 293.61"><defs><style>.cls-1{fill:#030303;}.cls-2{fill:#040404;}.cls-3{fill:#060606;}.cls-4{fill:#020202;}</style></defs><title>icons</title><path class="cls-1" d="M0,149.88V31.8c0-5.52,1.53-7,7.1-7a8.34,8.34,0,0,1,1.66,0c2.45.47,2.35-1.05,2.35-2.74C11.1,12,16.88,3.85,26,1,39.87-3.32,53.18,6.65,53.53,21.9c.06,2.64.92,2.9,3.15,2.9q60.86-.09,121.69-.05c5.88,0,7.38,1.5,7.38,7.35V148.53c0,4-1.77,6.21-5,6.35a5.09,5.09,0,0,1-5.47-4.71,23.21,23.21,0,0,1,0-2.77q0-54.74.06-109.49c0-2.3-.53-2.86-2.84-2.85q-57.94.12-115.87,0c-2.43,0-3.17.54-3,3a57,57,0,0,1-.2,10A13.28,13.28,0,0,1,39.57,59.75,13.42,13.42,0,0,1,26.72,47c-.17-3.32-.11-6.65,0-10,0-1.4-.31-1.93-1.81-1.89-4.16.1-8.32.07-12.48,0-1.32,0-2.17.18-1.89,1.78a9.06,9.06,0,0,1,0,1.38q0,111.44-.07,222.87c0,2.76.76,3.24,3.34,3.23,25.5-.11,51-.07,76.51-.06,1,0,2,0,3,.06A5.12,5.12,0,0,1,98.08,269a5.21,5.21,0,0,1-3.69,5.5,9.57,9.57,0,0,1-3.28.36h-84c-5.39,0-7.12-1.74-7.12-7.14ZM21.59,22c.75.57-1.15,2.58,1.08,2.73,1.73.11,3.95,1,4.37-2.29.32-2.53,2.45-3.77,5.1-3.71s4,1.54,4.82,3.85c.34,1-.13,2.55,1.89,2.24,1.26-.19,2.58,0,3.85-.18.47-.06.39-.74.45-1.19A11.35,11.35,0,0,0,32.77,10.53C26.7,10.18,21.62,15.22,21.59,22ZM37.17,41.21v4.41c0,2,.62,3.54,2.86,3.59,2.43.06,3.07-1.62,3.1-3.66,0-2.48-.15-5,.06-7.44S42.76,35,40.24,35s-3.48.67-3.09,3.19A20.27,20.27,0,0,1,37.17,41.21Z"/><path class="cls-2" d="M109.56,263.56c0-5.54,0-11.08,0-16.63,0-7,4.22-11.19,11.15-11.37,5.34-.14,10.69-.32,16-.67,3.39-.22,6.13-1.49,7.55-5s4.12-6.53,6.64-9.49c8-9.38,13.22-20.33,17.87-31.61A5.62,5.62,0,0,0,169,186c0-.56-.19-1.1-.23-1.65-.48-7.18,2.12-12,7.52-13.9s12.33.93,16.34,6.47c4.51,6.25,4,13,2.2,19.89-1.32,5.17-2.8,10.3-4.22,15.44-.45,1.64-.33,2.25,1.8,1.92,8.31-1.27,16.69-2.06,25-.21,5.94,1.32,10.87,4.12,12.86,10.43a17,17,0,0,1,.35,7.67,8.51,8.51,0,0,0,.72,5,16.15,16.15,0,0,1-.48,14.9,4.66,4.66,0,0,0-.56,3.4,16.53,16.53,0,0,1-3.85,15.19,6.39,6.39,0,0,0-1.74,3.92c-.63,9.06-6.2,14-14.13,16.89a39.39,39.39,0,0,1-13.05,2.2c-16.26.19-32.46-.7-48.67-2-8.81-.71-17.72-.18-26.59-.19s-12.7-3.77-12.71-12.59Zm10.58-.19c0,5,.13,10-.06,15-.08,2.24.62,2.8,2.77,2.76,8.68-.13,17.4-.61,26,0,15.56,1.14,31.11,2.14,46.7,2.05,4.7,0,9.41-.41,13.74-2.61,3.74-1.91,5.56-4.64,4.92-8.4-.55-3.27.53-5.46,3.11-7.35a6.53,6.53,0,0,0,2.38-8.34,7.15,7.15,0,0,1,.91-7.95c2.43-3.29,2.42-6.19,0-9.16-2.06-2.55-2.41-4.9-.74-7.82s.55-5.2-2.41-6.51a22,22,0,0,0-8.35-1.63,79.93,79.93,0,0,0-18.69,1.88c-5.79,1.19-10.32-2.11-10.75-7.78a24.17,24.17,0,0,1,.36-6.34c1.35-7.26,4.35-14.09,5.48-21.41a8.39,8.39,0,0,0-2.72-8c-.83-.76-1.93-1.81-3.14-1.06-1.06.67-.73,2-.48,3.09a11.61,11.61,0,0,1-.1,7.07c-5,13-11,25.36-20,36.1a44.69,44.69,0,0,0-6.12,8.82c-2.63,5.4-7.27,8.14-13,9.22-5.93,1.11-12,.36-17.94,1.05-1.56.18-2,.51-2,2.08C120.2,253.21,120.14,258.29,120.14,263.37Z"/><path class="cls-3" d="M92.48,169.72H38.74c-2.47,0-4.83-.2-6.13-2.78a5,5,0,0,1,3-7.3,11.15,11.15,0,0,1,3.27-.39q53.18,0,106.36,0a15.67,15.67,0,0,1,3.56.31,5.07,5.07,0,0,1-.42,10,19.19,19.19,0,0,1-3,.12Z"/><path class="cls-2" d="M92.52,114.6q26.87,0,53.73,0c2.2,0,4.29.23,5.65,2.22,2.46,3.6.24,7.78-4.45,8.3a35.7,35.7,0,0,1-3.87,0l-105.26,0a6.24,6.24,0,0,1-5.21-2.08,5.18,5.18,0,0,1,3.46-8.38,18.12,18.12,0,0,1,2.76-.07Z"/><path class="cls-4" d="M92.48,147.39h-54c-2.21,0-4.29-.33-5.6-2.33-2.3-3.51-.06-7.71,4.38-8.16a46,46,0,0,1,4.7,0l104.14,0c2.38,0,4.62.36,6,2.64A4.84,4.84,0,0,1,152,145c-1.36,2.14-3.5,2.44-5.8,2.44Z"/><path class="cls-2" d="M80.14,181.66h40.73a9,9,0,0,1,4.32.71,4.83,4.83,0,0,1,2.67,4.53,4.65,4.65,0,0,1-2.75,4.46,9.69,9.69,0,0,1-4,.81q-41.14,0-82.29,0a13.08,13.08,0,0,1-3-.36c-2.63-.64-3.8-2.53-3.84-5.07a5,5,0,0,1,4.39-4.93,17,17,0,0,1,2.77-.11Z"/><path class="cls-2" d="M126.89,69.81c-6.64,0-13.29.07-19.93,0-4.71-.06-7.15-4.13-4.89-8a5.36,5.36,0,0,1,5-2.49q20.07-.11,40.14,0c3.43,0,5.94,2.55,5.8,5.44-.14,3.06-2.47,5-6.13,5C140.18,69.84,133.54,69.81,126.89,69.81Z"/><path class="cls-1" d="M127.16,78.6c6.65,0,13.29,0,19.94,0a5.36,5.36,0,0,1,5.09,2.68,4.89,4.89,0,0,1-.26,5.47,5.6,5.6,0,0,1-5,2.34q-19.8.06-39.59,0c-3.7,0-6.19-2.29-6.11-5.37s2.42-5.1,6.32-5.12C114.06,78.58,120.61,78.6,127.16,78.6Z"/></svg>