<svg id="Layer_1" data-name="Layer 1" xmlns="http://www.w3.org/2000/svg" viewBox="0 0 260.83 275.66"><title>icons</title><path d="M88.77,56.51v44.72a7,7,0,0,0,.83.25c3.64.49,3.64.49,4.55-3.14,1.35-5.41,2.69-10.82,4.07-16.22s5-6.69,9.36-3.08c3.27,2.72,6.51,5.46,9.78,8.18.11.09.3.1-.15,0C121,81,124.07,74.37,128.5,68.87c19-23.63,43.6-33.44,73.67-27.76s53.88,31.33,58,61.6a74.07,74.07,0,0,1-50.9,80.88,25.49,25.49,0,0,1-4.34,1.15c-2.25.3-3.1,1.17-3.05,3.67.18,10,.07,20,.07,30v3.05c3.25,0,6.3-.07,9.35,0,7.91.19,13.63,5,14.92,12.45a14.65,14.65,0,0,1-14.32,17.19c-3.22.06-6.44,0-10,0,0,3.37.08,6.43,0,9.49-.22,7.78-5.17,13.57-12.61,14.85-8.07,1.4-16.17-4.75-16.75-12.91-.26-3.64,0-7.31,0-11.43-3.59,0-6.88,0-10.17,0a14.75,14.75,0,0,1-1.68-29.39c3.78-.39,7.62-.06,11.58-.06v-36L162.53,183c0,4.17-.05,8.23,0,12.29.05,2.46-.26,4.7-2.7,6s-4.46.23-6.45-1.18c-1.81-1.28-3.71-2.45-5.68-3.74A73.93,73.93,0,0,1,1.06,204.47C-5.67,165.74,20.38,127.25,59,119.6v-63c-.74.64-1.3,1.07-1.8,1.56C53.6,61.75,50,65.38,46.4,68.93c-6.5,6.35-15.91,6.59-22,.61-6.31-6.22-6.28-15.73.28-22.34,13.62-13.72,27.34-27.34,41-41,1.36-1.36,2.73-2.7,4.08-4.06C72.64-.68,75.16-.72,78,2.08q9.66,9.62,19.28,19.26c8.72,8.72,17.48,17.4,26.15,26.17A15.3,15.3,0,0,1,126,66.14a15.11,15.11,0,0,1-17.15,7.14,20.9,20.9,0,0,1-7.38-4.38c-3.75-3.28-7.13-7-10.67-10.53C90.25,57.82,89.64,57.3,88.77,56.51ZM73.88,12.09c-.7.67-1.26,1.17-1.79,1.69q-19.8,19.78-39.6,39.58a14.92,14.92,0,0,0-2,2.25,5,5,0,0,0-.12,5.65c1.05,1.79,2.67,3,4.73,2.58a9.39,9.39,0,0,0,4.5-2.2C46.42,55.1,53.05,48.42,59.7,41.75c1.86-1.86,3.94-2.89,6.51-1.79S69,43.21,69,45.59q0,38.49,0,77c0,4.12-1.31,5.61-5.45,6.35-37.32,6.58-60.91,42.51-51.69,78.72a63.91,63.91,0,0,0,124.78-27.46c-5-26.14-25.13-46-51.77-51.15-5.26-1-6-1.93-6-7.32q0-37.74,0-75.48a23.06,23.06,0,0,1,.06-2.5,4.77,4.77,0,0,1,7.49-3.47,14.67,14.67,0,0,1,2,1.82c6.73,6.7,13.43,13.43,20.18,20.12a5.62,5.62,0,0,0,6.64,1.14,5.24,5.24,0,0,0,2.7-5.92,8.66,8.66,0,0,0-2.17-3.53Q95.54,33.53,75.16,13.25C74.82,12.9,74.44,12.59,73.88,12.09ZM182.15,203.87c0,7.33,0,14.66,0,22,0,3.72-1.85,5.49-5.54,5.51-4.5,0-9,0-13.5,0-3.28,0-5.5,2-5.51,4.86,0,3,2.16,5,5.57,5,4.41,0,8.83,0,13.24,0,4.06,0,5.72,1.72,5.75,5.83,0,4.33,0,8.66,0,13,.05,3.43,2.12,5.76,5,5.73s4.87-2.38,4.9-5.8c0-4.33,0-8.66,0-13,0-4,1.73-5.73,5.81-5.77,4.33,0,8.66,0,13,0,3.55,0,5.68-1.82,5.72-4.84s-2.15-5-5.79-5.06c-4.17,0-8.34,0-12.5,0-4.67,0-6.24-1.58-6.24-6.32q0-21.12,0-42.24c0-4.42,1.09-5.7,5.49-6.51,35.54-6.62,58.26-38.59,52.58-74-6.75-42.05-53.86-65.84-91.63-45.94-22.24,11.72-34.59,30.48-35.25,55.78-.84,32,22.17,59,53.75,64.2,3.83.63,5.15,2.13,5.16,6C182.17,189.54,182.15,196.71,182.15,203.87ZM106.23,90.78c-1.41,5.58-2.73,10.82-4.07,16-1.06,4.16-2.64,5.27-7,5l-6.42-.48v8.08c4.73,1.62,9.38,2.93,13.79,4.82s8.57,4.35,12.83,6.56c0,0,.06,0,0-.09a75.16,75.16,0,0,1-.78-31.46,2.37,2.37,0,0,0-.68-1.87C111.55,95.19,109,93.14,106.23,90.78Zm39.37,83.49a34.51,34.51,0,0,1,1,5.86c0,4,2.65,5.66,6,7.32,0-2.87,0-5.5,0-8.11a2,2,0,0,0-.84-1.35C149.79,176.74,147.79,175.59,145.6,174.27Z"/><path d="M19.87,193.14c-1.25-26.66,19.76-53.62,51.54-55.07,29.78-1.37,56.32,20.94,56.53,54.49.17,28-21.32,52.4-52.17,53.59A53.46,53.46,0,0,1,19.87,193.14Zm97.85,5.06c-3.72,3.08-6.83,5.69-10,8.25-4.49,3.63-8.12,2.44-9.54-3.14-1.47-5.8-3-11.6-4.34-17.43-.36-1.57-1.07-1.95-2.58-1.82-6,.49-12,.84-17.93,1.3-5.39.41-8-3-6-8,2.32-5.87,4.66-11.75,7.09-17.58a2.12,2.12,0,0,0-.77-3c-2.71-2.07-5.39-4.2-8-6.43a3.94,3.94,0,0,0-4.08-.84c-21.31,5.91-35.39,28.07-31.32,49.85,3.25,17.34,13.37,29.31,30.12,34.76s31.94,1.4,44.66-10.78C112,216.77,116.07,208.49,117.72,198.2ZM78.9,174.86c1.53-.07,2.6-.1,3.67-.17,4.48-.31,9-.67,13.45-.93,3.38-.2,5.18,1.13,6,4.33.55,2.09,1,4.2,1.55,6.3.85,3.31,1.73,6.62,2.69,10.31,3.75-3.13,7.1-5.87,10.34-8.72a2.53,2.53,0,0,0,.67-2.1Q111.18,156.72,84.37,149a41.25,41.25,0,0,0-4.87-.83A8.37,8.37,0,0,0,82,151c4.35,3.41,4.67,4.71,2.59,9.78C82.71,165.29,80.91,169.85,78.9,174.86Z"/><path d="M133,112.54c0-29.14,24.27-53.37,53.57-53.39,30.71,0,54.84,24.1,54.56,55-.25,28.26-22.79,52.74-53.65,53.15C156.91,167.73,133.05,143.41,133,112.54Zm38.39,14.51c1.14.73,2,1.32,2.94,1.89,4.79,3,9.6,6,14.38,9,4.39,2.78,4.37,6.85,0,9.69-2.17,1.41-4.38,2.74-6.56,4.12-2,1.27-4,2.56-6.39,4.1a10,10,0,0,0,2.53.82c5.87.06,11.93,1,17.58-.13a43.68,43.68,0,0,0,34.47-52.19c-4-18.23-15.52-30.23-33.72-34.23-18-4-33.27,2-44.94,16.54a5.6,5.6,0,0,0-1.14,5.74,65.64,65.64,0,0,1,1.93,7.48c.28,1.33.83,1.75,2.2,1.65,5.9-.46,11.8-.73,17.69-1.21,6.35-.51,8.75,2.6,6.39,8.48S173.9,120.82,171.4,127.05Zm-27.87-20.36a10,10,0,0,0-.45,2.07c.13,4.15-.14,8.38.57,12.43,2.13,12.25,8.64,21.81,18.91,28.79.69.47,1.93,1,2.45.68,4.2-2.43,8.29-5.06,12.73-7.81-1.11-.74-1.78-1.21-2.47-1.64-4-2.54-8-5.05-12-7.6-2.77-1.77-3.43-3.7-2.32-6.8.57-1.56,1.23-3.09,1.85-4.63,1.47-3.68,2.95-7.36,4.57-11.42-5.17.31-9.9.49-14.61.92C146.91,112.21,146.4,112,143.53,106.69Z"/></svg>