<svg id="Layer_1" data-name="Layer 1" xmlns="http://www.w3.org/2000/svg" viewBox="0 0 311.85 314.72"><defs><style>.cls-1{stroke:#000;stroke-miterlimit:10;stroke-width:2px;}</style></defs><title>icons</title><path class="cls-1" d="M310.85,1V8.07H296.13V175.72h14.72v7.2h-152v2.94c0,17.42,0,34.83,0,52.25a6.37,6.37,0,0,0,1.77,4.66q27.72,31,55.41,62.1a6,6,0,0,0,3.55,1.65,60.69,60.69,0,0,0,6.91.07v7.13h-21.4v-6.83l2.39-.65L159,251.56V306.5h7.81v7.22H143v-7h7.83V251.61l-48.53,54.78,4,.34v6.92H84.88v-7.06a44.13,44.13,0,0,0,5.87-.07,6.12,6.12,0,0,0,3.58-1.6q28-31.47,55.78-63.1a5.14,5.14,0,0,0,1.35-3c.08-18.17.06-36.33,0-54.49,0-.33-.07-.66-.14-1.25H1.08v-7.2H15.72V8.15H1V1ZM288.57,175.63V8.29H23.32V175.63Z"/><path class="cls-1" d="M243.1,31.83H224v-7h31.69V56.43h-7.2V36.92c-.88.79-1.42,1.23-1.92,1.73L207,78.23c-.87.87-1.68,1.46-.9,3.1a14.73,14.73,0,0,1-7,20c-7.6,3.76-16,1.09-19.85-6.72-1.34-2.74-2.85-3.36-5.64-3.3-8.91.18-17.83.09-26.74,0a2.35,2.35,0,0,0-2.66,1.86,14.87,14.87,0,0,1-19.6,8.71c-1.86-.75-2.77-.29-4,1Q104,119.71,87.2,136.35c-1.51,1.48-1.89,2.66-1.16,4.72,2.28,6.36.89,12.06-4.16,16.55-4.82,4.28-10.38,5.35-16.47,2.79a15.07,15.07,0,0,1-8.09-19.74,15.47,15.47,0,0,1,20.43-8.07c1.68.76,2.57.6,3.82-.66q16.91-17,33.94-33.91c1.14-1.13,1.49-1.92.74-3.57-3.83-8.45-.1-17.24,8.67-20.89,7.43-3.09,16.45,1,19.58,9,.57,1.45,1.22,2.06,2.85,2,9.49-.08,19,0,28.48-.1a2.9,2.9,0,0,0,2.22-1.26c4.7-10.1,12-12.92,22.22-8.59ZM71.66,154.41a8.21,8.21,0,0,0,8.19-8A8.39,8.39,0,0,0,71.72,138a8.57,8.57,0,0,0-8.31,8.28A8.11,8.11,0,0,0,71.66,154.41ZM192.05,96.33a8.24,8.24,0,0,0,.44-16.47c-4.19-.13-8.35,3.75-8.45,7.86A8.68,8.68,0,0,0,192.05,96.33ZM138,88.06a8.18,8.18,0,0,0-8.25-8.21c-4,0-8.1,4-8.18,7.93s4.16,8.08,8.57,8A8.05,8.05,0,0,0,138,88.06Z"/></svg>